<?xml version="1.0" encoding="UTF-8"?>
<svg version="1.1" xmlns="http://www.w3.org/2000/svg" width="512" height="512">
<path d="M0 0 C18.45280655 12.37807732 29.60701051 34.06518017 39.20703125 53.48046875 C41.07094429 50.68459919 42.12674236 48.28233409 43.33203125 45.16796875 C50.51000337 27.86989059 61.18018337 12.30920469 78.20703125 3.48046875 C85.52267779 1.09493183 94.61238974 1.25538619 101.58203125 4.48046875 C112.53945953 10.92918474 118.26181807 20.63739024 121.95703125 32.60546875 C129.96730766 65.93394022 122.85016745 101.43986656 105.20703125 130.48046875 C102.10187171 135.32093664 98.7069148 139.92080197 95.20703125 144.48046875 C94.54703125 145.36476563 93.88703125 146.2490625 93.20703125 147.16015625 C88.32728656 153.43139064 82.84284276 159.07701513 77.26953125 164.73046875 C76.53025391 165.4874707 75.79097656 166.24447266 75.02929688 167.02441406 C70.40553652 171.64208518 65.64003358 175.47596302 60.17358398 179.06152344 C58.08556155 180.3370315 58.08556155 180.3370315 57.20703125 182.48046875 C57.90828125 182.54105469 58.60953125 182.60164062 59.33203125 182.6640625 C60.28078125 182.74785156 61.22953125 182.83164062 62.20703125 182.91796875 C63.59921875 183.03978516 63.59921875 183.03978516 65.01953125 183.1640625 C67.17469213 183.37799391 69.32435747 183.65517398 71.46411133 183.98974609 C78.03859772 184.80986494 84.6668279 184.6441472 91.28125 184.6484375 C92.80781604 184.65244105 94.3343816 184.65663225 95.86094666 184.66099548 C100.87215177 184.67250357 105.88331706 184.67062836 110.89453125 184.66796875 C112.64044189 184.66802491 114.38635254 184.66808598 116.13226318 184.66815186 C172.48940438 184.65243516 228.92825197 183.5524653 285.20703125 180.48046875 C283.67949219 179.74727417 283.67949219 179.74727417 282.12109375 178.99926758 C278.30941282 177.16819217 274.50072614 175.33095997 270.69287109 173.49194336 C269.05076625 172.69992049 267.40787573 171.90952425 265.76416016 171.12084961 C263.38881618 169.98077103 261.01644796 168.8346888 258.64453125 167.6875 C257.55809326 167.16842827 257.55809326 167.16842827 256.44970703 166.63887024 C243.43163227 160.31737029 243.43163227 160.31737029 240.20703125 155.48046875 C240.33772979 151.82090973 240.43890376 149.39631306 242.83203125 146.54296875 C246.53230301 144.88758401 250.17723964 144.71691163 254.02490234 146.16430664 C256.08535319 147.20587994 258.08183158 148.32732554 260.08203125 149.48046875 C269.20505118 154.51199207 278.50762835 159.0937737 287.89453125 163.60546875 C292.64147576 165.88811599 297.38701999 168.17345629 302.12591553 170.47277832 C303.56420196 171.16920642 305.00378218 171.86296658 306.44439697 172.55456543 C308.66740785 173.62347793 310.88490702 174.70313727 313.1015625 175.78515625 C313.78490158 176.111138 314.46824066 176.43711975 315.17228699 176.77297974 C318.48738739 178.40439045 320.11310153 179.33957417 322.20703125 182.48046875 C321.99093264 187.45073672 320.43948426 189.81583707 317.20703125 193.48046875 C315.60021515 194.85641045 313.95421632 196.18746123 312.27880859 197.47900391 C306.03650441 202.49157739 300.44144576 208.0144622 294.82585526 213.71131516 C293.01386113 215.54928001 291.19530372 217.38053313 289.37509155 219.21035767 C285.52166767 223.08639221 281.67628359 226.97034057 277.83203125 230.85546875 C273.35148641 235.38337075 268.86762244 239.90788548 264.3752861 244.42409134 C262.58917414 246.22310497 260.80921707 248.02805644 259.02944946 249.83334351 C257.93350412 250.936554 256.83727695 252.03948462 255.74072266 253.14208984 C255.25233917 253.64080597 254.76395569 254.13952209 254.26077271 254.65335083 C250.59192702 258.32331574 247.36841164 261.17170012 242.14453125 261.91796875 C239.20703125 261.48046875 239.20703125 261.48046875 236.83203125 259.91796875 C234.55732506 256.50590946 234.57168142 254.50435101 235.20703125 250.48046875 C237.43132019 248.06867981 237.43132019 248.06867981 240.20703125 245.48046875 C241.00679886 244.68070114 241.80656647 243.88093353 242.63056946 243.05693054 C257.82272339 227.86477661 273.01487732 212.67262268 288.20703125 197.48046875 C286.93819092 197.53058105 285.66935059 197.58069336 284.36206055 197.63232422 C250.34422074 198.95498846 216.32155014 199.83560496 182.28580093 200.5386734 C179.14300489 200.60419751 176.00025625 200.67166014 172.85751343 200.73968506 C150.91476289 201.21158683 128.9715571 201.57420232 107.02347183 201.64815903 C104.94328444 201.65599803 102.86310594 201.66702216 100.78295517 201.68164444 C84.76026317 201.78583101 68.43233618 201.57235201 52.83203125 197.48046875 C52.14882812 197.31546875 51.465625 197.15046875 50.76171875 196.98046875 C47.9339575 196.2790086 45.31152072 195.52933767 42.66796875 194.29296875 C36.36422763 192.21173358 29.65895622 195.59940789 23.70703125 197.73046875 C-0.90586135 206.19128645 -26.30900464 209.20416566 -52.16796875 210.66796875 C-52.91774994 210.71094086 -53.66753113 210.75391296 -54.44003296 210.79818726 C-62.67081185 211.25809112 -70.90091777 211.57043796 -79.14453125 211.65625 C-80.20841568 211.67681709 -80.20841568 211.67681709 -81.29379272 211.69779968 C-84.95603082 211.70972997 -87.72462883 211.58160441 -90.79296875 209.48046875 C-92.71495989 206.91781389 -92.80325511 205.64847926 -92.60546875 202.41796875 C-91.77379748 199.41115724 -91.27068111 198.29110471 -88.79296875 196.48046875 C-85.38768493 195.34537414 -82.70838493 195.32132622 -79.1171875 195.26953125 C-77.73273425 195.24377994 -76.34829443 195.21729884 -74.96386719 195.19018555 C-74.233573 195.1769223 -73.50327881 195.16365906 -72.75085449 195.1499939 C-41.84238256 194.54383953 -11.47381242 191.42136487 18.20703125 182.48046875 C15.05863735 179.28183452 11.84081995 176.2399612 8.45703125 173.29296875 C-22.6735008 145.28928482 -45.99639524 99.43707472 -48.99560547 57.65771484 C-49.83795973 39.9502892 -48.38055291 21.67811829 -36.6484375 7.51953125 C-26.62699838 -3.4935029 -13.76872133 -7.94092652 0 0 Z M-24.83984375 17.77734375 C-34.38377034 30.98613815 -35.08726541 47.40974248 -32.66796875 62.91796875 C-28.03571848 89.98696815 -16.72253663 116.16725215 -0.79296875 138.48046875 C-0.06722656 139.50527344 0.65851563 140.53007812 1.40625 141.5859375 C10.35142335 153.72475952 22.07113325 168.33071252 36.20703125 174.48046875 C40.86072928 174.40552997 44.14555009 171.77139172 47.76953125 169.10546875 C48.68545044 168.44043335 48.68545044 168.44043335 49.61987305 167.76196289 C55.90896314 163.10606401 61.58091108 157.90508031 67.20703125 152.48046875 C67.96242188 151.78824219 68.7178125 151.09601563 69.49609375 150.3828125 C92.10112223 129.05188563 108.46454146 97.77158583 109.41015625 66.4140625 C109.75116144 43.03330791 109.75116144 43.03330791 99.57421875 22.57421875 C95.76769515 18.95546089 92.60200548 17.38412992 87.20703125 17.48046875 C75.22055113 20.96744478 67.18394248 32.36078657 61.36328125 42.78125 C57.0954308 51.50124445 53.95905722 60.57456937 50.95874023 69.80004883 C50.48609741 71.22740356 50.48609741 71.22740356 50.00390625 72.68359375 C49.72901367 73.53598633 49.45412109 74.38837891 49.17089844 75.26660156 C48.13290105 77.65073537 47.28045672 78.91887749 45.20703125 80.48046875 C38.33735998 81.2560768 38.33735998 81.2560768 34.74633789 78.79199219 C31.99684338 76.28913534 30.90444024 74.39286347 29.4453125 71 C28.97150146 69.92645264 28.49769043 68.85290527 28.00952148 67.74682617 C27.51782471 66.60705322 27.02612793 65.46728027 26.51953125 64.29296875 C12.63805288 32.79969965 12.63805288 32.79969965 -12.91796875 11.23046875 C-18.10384037 11.68141411 -21.48354214 14.01111217 -24.83984375 17.77734375 Z " fill="#000000" transform="translate(146.79296875,125.51953125)"/>
</svg>
