<svg xmlns="http://www.w3.org/2000/svg" xmlns:xlink="http://www.w3.org/1999/xlink" xml:space="preserve" version="1.1" style="shape-rendering:geometricPrecision;text-rendering:geometricPrecision;image-rendering:optimizeQuality;" viewBox="0 0 216 270" x="0px" y="0px" fill-rule="evenodd" clip-rule="evenodd"><defs><style type="text/css">
   
    .fil0 {fill:black;fill-rule:nonzero}
   
  </style></defs><g><path class="fil0" d="M211 188l-11 -11c-6,-6 -14,-6 -19,-3l-10 -10c3,-6 3,-13 -3,-19l-11 -11c-6,-6 -13,-6 -19,-3l-10 -10c3,-6 3,-13 -3,-19l-11 -11c-6,-6 -13,-6 -19,-3l-10 -10c3,-6 3,-13 -3,-19l-11 -11c-6,-6 -13,-6 -19,-3l-10 -10c3,-6 3,-13 -3,-19l-11 -11c-15,-16 -38,8 -23,23l11 11c6,6 13,6 19,3l10 10c-3,6 -3,13 3,19l11 11c6,6 13,6 19,3l10 10c-3,6 -3,13 3,19l11 11c6,6 13,6 19,3l10 10c-3,6 -3,13 3,19l10 11c6,6 14,6 20,3l10 10c-4,6 -4,13 2,19l11 11c15,15 39,-8 24,-23zm-29 1c4,2 9,-3 6,-7 2,0 3,0 5,2l11 11c6,6 -4,15 -9,9l-11 -11c-2,-1 -2,-3 -2,-4zm-19 -33c-4,-2 -9,3 -7,7 -2,0 -3,-1 -4,-2l-11 -11c-2,-1 -2,-3 -2,-4 4,2 9,-3 7,-7 1,0 3,1 4,2l11 11c1,1 2,3 2,4zm-43 -43c-4,-2 -9,3 -7,7 -2,0 -3,-1 -4,-2l-11 -11c-1,-1 -2,-3 -2,-4 4,2 9,-3 7,-7 1,0 3,1 4,2l11 11c0,0 2,3 2,4zm-43 -43c-4,-2 -9,3 -7,7 -1,0 -3,-1 -4,-2l-11 -11c-1,-1 -2,-3 -2,-4 4,2 9,-3 7,-7 1,0 3,1 4,2l11 11c1,1 2,3 2,4zm-43 -43c-4,-2 -9,3 -7,7 -1,0 -3,0 -4,-2l-11 -11c-6,-6 3,-15 9,-9l11 11c1,1 2,3 2,4z"/></g><text x="0" y="231" fill="#000000" font-size="5px" font-weight="bold" font-family="'Helvetica Neue', Helvetica, Arial-Unicode, Arial, Sans-serif">Created by anam</text><text x="0" y="236" fill="#000000" font-size="5px" font-weight="bold" font-family="'Helvetica Neue', Helvetica, Arial-Unicode, Arial, Sans-serif">from the Noun Project</text></svg>